<svg width="48" height="50" viewBox="0 0 48 50" fill="none" xmlns="http://www.w3.org/2000/svg">
<ellipse cx="24" cy="25" rx="24" ry="25" fill="#CDCDCD"/>
<path d="M23.9767 25.6938C16.8164 25.7073 10.8931 31.3764 10.5353 38.5405C10.5258 38.7438 10.5578 38.947 10.6292 39.1375C10.7007 39.3281 10.8102 39.5021 10.9511 39.649C11.092 39.7959 11.2612 39.9126 11.4487 39.992C11.6361 40.0714 11.8377 40.1118 12.0412 40.1108H35.9709C36.1734 40.1103 36.3737 40.0687 36.5598 39.9886C36.7458 39.9085 36.9137 39.7915 37.0533 39.6448C37.1929 39.498 37.3014 39.3246 37.3721 39.1348C37.4429 38.945 37.4745 38.7428 37.465 38.5405C37.1068 31.3673 31.1696 25.6946 24.0002 25.6938H23.9767Z" fill="#272727"/>
<path d="M24.0009 9.88892C20.2053 9.88892 17.1109 12.9979 17.1108 16.7977C17.1108 20.5976 20.2053 23.7173 24.0009 23.7173C27.7966 23.7173 30.9017 20.5976 30.9017 16.7977C30.9017 12.9979 27.7965 9.88892 24.0009 9.88892Z" fill="#272727"/>
</svg>
